<?xml version="1.0" standalone="no"?>
<!DOCTYPE svg PUBLIC "-//W3C//DTD SVG 20010904//EN"
 "http://www.w3.org/TR/2001/REC-SVG-20010904/DTD/svg10.dtd">
<svg version="1.0" xmlns="http://www.w3.org/2000/svg"
 width="310.000000pt" height="310.000000pt" viewBox="0 0 310.000000 310.000000"
 preserveAspectRatio="xMidYMid meet">
<metadata>
Created by potrace 1.11, written by Peter Selinger 2001-2013
</metadata>
<g transform="translate(0.000000,310.000000) scale(0.100000,-0.100000)"
fill="#000000" stroke="none">
<path d="M1240 3009 c-195 -23 -394 -129 -478 -254 -30 -44 -42 -52 -95 -70
-162 -52 -277 -168 -277 -277 0 -44 17 -79 64 -132 14 -16 26 -41 26 -56 0
-15 9 -62 20 -105 27 -105 26 -108 -10 -103 -38 6 -38 -6 0 -29 17 -9 30 -22
30 -28 0 -13 -48 -59 -102 -99 -59 -42 -54 -67 25 -130 20 -16 37 -33 37 -37
0 -4 -12 -21 -26 -38 -25 -30 -25 -33 -10 -56 9 -13 25 -29 35 -35 18 -9 19
-13 6 -44 -12 -29 -12 -36 1 -55 8 -11 29 -28 46 -37 29 -15 30 -17 25 -70 -4
-47 -2 -59 18 -82 22 -25 28 -27 107 -26 64 0 115 9 223 39 l139 38 36 -41
c42 -46 85 -150 99 -237 6 -33 8 -124 6 -201 -3 -130 -6 -150 -39 -247 -56
-168 -104 -254 -219 -395 -33 -40 -57 -76 -53 -80 15 -15 144 -30 222 -26 87
4 170 29 238 72 40 25 67 48 182 155 96 90 182 156 243 186 54 27 83 35 180
46 25 3 46 7 48 9 3 2 -13 17 -34 32 -246 180 -380 485 -342 778 14 104 55
179 147 268 215 206 237 231 269 309 31 73 55 174 68 276 7 59 -17 216 -46
301 -23 68 -23 72 -1 72 49 0 139 -77 180 -154 23 -44 27 -63 26 -136 0 -98
-17 -152 -107 -341 -101 -214 -124 -303 -105 -410 54 -299 427 -386 604 -142
39 54 70 123 55 123 -5 0 -15 -7 -22 -17 -8 -9 -28 -22 -46 -30 -99 -41 -213
21 -213 117 0 36 38 117 114 239 179 289 223 474 167 693 -59 227 -228 409
-419 449 -79 16 -213 6 -284 -21 -32 -11 -85 -41 -118 -66 -58 -43 -63 -44
-88 -31 -133 69 -180 89 -255 111 -95 28 -198 36 -297 25z"/>
</g>
</svg>
